<svg xmlns="http://www.w3.org/2000/svg" viewBox="0 0 2694 1000" width="2694" height="1000">
  <g transform="translate(10, 774) scale(1, -1)" fill="#d4d8de">
    <path d="M421 295H313L243 580L172 295H71L180 704H314ZM63 265H429L498 0H385L341 167H141L100 0H-7Z" transform="translate(0, 0)"/>
    <path d="M160 369H47V704H160ZM47 339H160V0H47Z" transform="translate(502, 0)"/>
    <path d="M47 246H160V151Q160 122 180.5 105.5Q201 89 233 89H268Q305 89 325.0 116.0Q345 143 345 181V246H456V167Q456 94 407.5 43.0Q359 -8 288 -8H243Q184 -8 156 23V-194H47ZM160 276H47V511H154V470Q191 519 263 519H313Q374 519 415.0 476.5Q456 434 456 373V276H345V341Q345 375 327.5 398.0Q310 421 278 421H246Q210 421 185.5 393.5Q161 366 160 331Z" transform="translate(719, 0)"/>
    <path d="M451 276H337V343Q337 375 322.0 396.0Q307 417 278 417H249Q221 417 194.5 396.5Q168 376 160 345H47V704H160V459Q195 519 278 519H316Q373 519 412.0 480.0Q451 441 451 380ZM47 315H160V0H47ZM337 246H451V0H337Z" transform="translate(1218, 0)"/>
    <path d="M313 288H425V141Q425 114 433.0 102.5Q441 91 465 91H476V-1H422Q367 -1 340.0 26.0Q313 53 313 97V186H197Q169 186 150.5 172.5Q132 159 132 133Q132 76 194 76H225Q264 76 286 98V82Q286 51 306 24Q269 -5 200 -5H153Q100 -5 59.5 28.5Q19 62 19 126Q19 187 56.0 225.0Q93 263 153 263H313ZM425 318H313V344Q313 375 293.5 398.0Q274 421 244 421H220Q185 421 166.0 397.5Q147 374 147 342V321H41V361Q41 427 87.5 473.0Q134 519 205 519H266Q335 519 380.0 474.5Q425 430 425 366Z" transform="translate(1723, 0)"/>
  </g>
  <g transform="translate(2214, 495.70000000000005) scale(0.45, -0.45)" fill="#2196F3">
    <path d="M435 600H-8V704H435ZM158 570H270V0H158Z" transform="translate(0, 0)"/>
    <path d="M456 363H566V0H456ZM47 363H157V0H47ZM157 393H47V704H157L310 364L460 704H566V393H456V480L317 172H297L157 480Z" transform="translate(432, 0)"/>
  </g>
</svg>